<?xml version="1.0" standalone="no"?>
<!DOCTYPE svg PUBLIC "-//W3C//DTD SVG 20010904//EN"
 "http://www.w3.org/TR/2001/REC-SVG-20010904/DTD/svg10.dtd">
<svg version="1.0" xmlns="http://www.w3.org/2000/svg"
 width="900.000000pt" height="506.000000pt" viewBox="0 0 900.000000 506.000000"
 preserveAspectRatio="xMidYMid meet">
<metadata>
Created by potrace 1.15, written by Peter Selinger 2001-2017
</metadata>
<g transform="translate(0.000000,506.000000) scale(0.100000,-0.100000)"
fill="#000000" stroke="none">
<path d="M2270 2999 c-169 -28 -312 -173 -341 -346 -30 -183 60 -357 229 -440
75 -37 78 -38 191 -38 109 0 120 2 181 31 111 54 190 142 190 213 0 43 -31 91
-73 113 -60 30 -105 21 -167 -35 -28 -25 -67 -51 -86 -57 -78 -26 -159 15
-190 95 -15 39 -15 52 -4 87 16 54 66 104 113 113 63 12 101 -2 166 -60 53
-47 67 -55 102 -55 76 0 139 57 139 125 -1 107 -145 229 -301 255 -72 11 -73
11 -149 -1z"/>
<path d="M924 2971 c-61 -37 -64 -57 -64 -383 0 -269 2 -297 20 -336 29 -65
101 -89 173 -58 54 22 70 58 76 168 l6 98 104 -130 c105 -131 130 -150 191
-150 67 0 138 88 126 155 -4 21 -39 74 -96 145 -50 62 -90 114 -90 116 0 1 34
51 75 110 68 96 75 112 75 154 0 81 -64 137 -147 127 -55 -6 -68 -18 -162
-150 l-76 -109 -5 89 c-3 48 -11 98 -18 111 -33 58 -128 80 -188 43z"/>
<path d="M1685 2980 c-11 -4 -31 -20 -45 -35 l-25 -27 -3 -325 c-3 -359 -4
-354 61 -393 41 -26 93 -25 135 0 59 36 62 56 62 393 0 300 0 305 -23 338 -12
18 -34 39 -47 46 -28 14 -85 16 -115 3z"/>
<path d="M2840 2977 c-13 -7 -35 -28 -47 -46 -23 -34 -23 -38 -23 -345 0 -294
1 -313 20 -344 33 -55 112 -77 168 -48 58 30 67 50 72 164 l5 107 104 -128
c58 -71 117 -135 132 -143 85 -44 189 24 189 123 0 44 -8 57 -129 207 -63 78
-66 58 32 201 66 96 77 136 52 189 -32 67 -118 96 -184 62 -16 -9 -62 -64
-107 -130 -43 -63 -82 -115 -86 -116 -5 0 -8 39 -8 86 0 63 -5 94 -17 115 -31
52 -116 75 -173 46z"/>
</g>
</svg>
